<?xml version="1.0" encoding="iso-8859-1"?>
<!-- Generator: Adobe Illustrator 16.0.0, SVG Export Plug-In . SVG Version: 6.00 Build 0)  -->
<!DOCTYPE svg PUBLIC "-//W3C//DTD SVG 1.1//EN" "http://www.w3.org/Graphics/SVG/1.1/DTD/svg11.dtd">
<svg version="1.1" xmlns="http://www.w3.org/2000/svg" xmlns:xlink="http://www.w3.org/1999/xlink" x="0px" y="0px"
	 viewBox="0 0 116.057 61" style="enable-background:new 0 0 116.057 61;" xml:space="preserve">
<g id="Germany">
	<g>
		<path style="fill:#F26334;" d="M61.513,53.82v-0.024c0-2.406,1.873-4.375,4.438-4.375c1.521,0,2.441,0.41,3.324,1.16l-1.174,1.414
			c-0.652-0.545-1.232-0.858-2.209-0.858c-1.356,0-2.433,1.197-2.433,2.636v0.023c0,1.549,1.064,2.685,2.562,2.685
			c0.677,0,1.282-0.171,1.753-0.509v-1.209H65.9v-1.606h3.677v3.675c-0.871,0.738-2.068,1.341-3.615,1.341
			C63.325,58.172,61.513,56.323,61.513,53.82z"/>
		<path style="fill:#F26334;" d="M70.734,54.824V54.8c0-1.85,1.319-3.373,3.202-3.373c2.166,0,3.157,1.681,3.157,3.519
			c0,0.144-0.013,0.313-0.026,0.482H72.56c0.182,0.835,0.762,1.271,1.584,1.271c0.615,0,1.064-0.195,1.572-0.666l1.049,0.932
			c-0.603,0.748-1.471,1.208-2.646,1.208C72.175,58.172,70.734,56.806,70.734,54.824z M75.304,54.279
			c-0.107-0.82-0.592-1.378-1.367-1.378c-0.761,0-1.256,0.544-1.402,1.378H75.304z"/>
		<path style="fill:#F26334;" d="M78.339,51.548h1.834v1.306c0.376-0.895,0.981-1.475,2.069-1.427v1.923h-0.099
			c-1.22,0-1.971,0.737-1.971,2.284v2.393h-1.834V51.548z"/>
		<path style="fill:#F26334;" d="M83.269,51.548h1.836v0.918c0.424-0.543,0.98-1.039,1.912-1.039c0.848,0,1.486,0.376,1.824,1.028
			c0.568-0.665,1.246-1.028,2.129-1.028c1.365,0,2.186,0.822,2.186,2.382v4.218h-1.838v-3.613c0-0.871-0.386-1.317-1.074-1.317
			c-0.689,0-1.113,0.446-1.113,1.317v3.613h-1.838v-3.613c0-0.871-0.387-1.317-1.073-1.317c-0.69,0-1.114,0.446-1.114,1.317v3.613
			h-1.836V51.548z"/>
		<path style="fill:#F26334;" d="M94.241,56.165v-0.023c0-1.414,1.077-2.068,2.611-2.068c0.652,0,1.123,0.109,1.583,0.267v-0.107
			c0-0.763-0.471-1.186-1.392-1.186c-0.699,0-1.195,0.132-1.787,0.352l-0.459-1.403c0.713-0.313,1.414-0.52,2.514-0.52
			c1.003,0,1.729,0.267,2.188,0.726c0.484,0.482,0.702,1.197,0.702,2.067v3.758h-1.778v-0.699c-0.448,0.494-1.063,0.82-1.956,0.82
			C95.245,58.147,94.241,57.446,94.241,56.165z M98.46,55.743v-0.327c-0.314-0.144-0.727-0.242-1.172-0.242
			c-0.783,0-1.268,0.315-1.268,0.894v0.025c0,0.498,0.408,0.785,1.002,0.785C97.88,56.878,98.46,56.405,98.46,55.743z"/>
		<path style="fill:#F26334;" d="M101.663,51.548h1.838v0.918c0.424-0.543,0.969-1.039,1.896-1.039c1.391,0,2.202,0.918,2.202,2.406
			v4.193h-1.839v-3.613c0-0.871-0.411-1.317-1.111-1.317c-0.701,0-1.148,0.446-1.148,1.317v3.613h-1.838V51.548z"/>
		<path style="fill:#F26334;" d="M113.146,51.548h1.911l-2.491,6.635c-0.496,1.318-1.029,1.816-2.129,1.816
			c-0.662,0-1.159-0.171-1.63-0.449l0.616-1.33c0.242,0.145,0.545,0.256,0.786,0.256c0.312,0,0.482-0.098,0.64-0.425l-2.54-6.503
			h1.948l1.475,4.412L113.146,51.548z"/>
	</g>
	<rect x="115.057" y="60" style="fill:none;" width="1" height="1"/>
	<g>
		<g>
			<g>
				<path style="fill:#002C6C;" d="M71.74,37.557v-1.932h-3.574V20.939h-1.738l-4.735,1.932l0.483,2.125l3.671-1.449v12.077h-4.059
					v1.932H71.74z"/>
			</g>
		</g>
		<g>
			<path style="fill:#002C6C;" d="M59.567,29.634c0,15.748-12.85,28.5-28.693,28.5c-15.845,0-28.695-12.752-28.695-28.5
				c0.096-15.748,12.851-28.5,28.695-28.5C46.718,1.134,59.567,13.886,59.567,29.634z"/>
			<g>
				<path style="fill:#FFFFFF;" d="M36.767,21.037c-4.25,0-7.44,3.478-7.44,8.212v0.193c0,4.926,2.997,8.212,7.343,8.212
					c2.415,0,4.251-0.967,5.41-1.838v-7.051h-5.507v1.739h3.574v4.154l-0.096,0.097c-0.87,0.579-2.028,0.965-3.188,0.965
					c-3.189,0-5.218-2.511-5.218-6.375v-0.096c0-3.575,2.126-6.28,5.121-6.28c1.739,0,2.802,0.579,3.671,1.352l1.257-1.641
					C40.147,21.52,38.699,21.037,36.767,21.037z"/>
			</g>
			<g>
				<path style="fill:#FFFFFF;" d="M45.172,35.432c1.642,1.447,3.574,2.125,5.603,2.125c3.092,0,5.12-1.837,5.12-4.542
					c0-2.221-1.158-3.477-4.346-4.636c-2.898-1.16-3.671-1.835-3.671-3.188c0-1.353,1.16-2.319,2.802-2.319
					c1.16,0,2.413,0.483,3.669,1.449l1.258-1.641c-1.353-1.16-2.996-1.74-4.832-1.74c-2.995,0-5.023,1.835-5.023,4.347
					c0,2.609,1.642,3.672,4.639,4.83c2.606,0.967,3.477,1.644,3.477,2.998c0,1.448-1.257,2.511-2.994,2.511
					c-1.933,0-3.381-0.967-4.348-1.836L45.172,35.432z"/>
			</g>
			<g>
				<path style="fill:#002C6C;" d="M52.806,6.062L52.806,6.062c0-1.545,1.253-2.802,2.801-2.802c1.546,0,2.801,1.257,2.801,2.802
					l0,0c0,1.545-1.255,2.801-2.801,2.801C54.059,8.863,52.806,7.607,52.806,6.062z M57.828,6.062L57.828,6.062
					c0-1.256-0.967-2.223-2.222-2.223c-1.258,0-2.223,0.966-2.223,2.223l0,0c0,1.255,0.965,2.222,2.223,2.222
					C56.861,8.284,57.828,7.317,57.828,6.062z M54.542,4.708h1.257c0.579,0,1.062,0.29,1.062,0.87c0,0.387-0.192,0.676-0.579,0.87
					l0.675,0.966h-0.771l-0.579-0.869H55.22v0.869h-0.678V4.708z M55.799,5.965c0.291,0,0.483-0.193,0.483-0.387
					s-0.192-0.387-0.483-0.387H55.22v0.773H55.799z"/>
			</g>
			<g>
				<g>
					<path style="fill:#FFFFFF;" d="M8.072,29.634c0-13.042,10.048-23.669,22.899-24.732V4.805l0,0
						c-13.817,0-25.024,11.11-25.024,24.829c0,13.72,11.207,24.83,24.927,24.83l0,0v-0.096C18.12,53.304,8.072,42.58,8.072,29.634z"
						/>
					<path style="fill:#FFFFFF;" d="M13.676,29.634c0-10.917,8.309-19.901,19.032-20.964l-0.096-0.097
						c-11.497,0.193-20.868,9.565-20.868,21.061c0,11.498,9.274,20.87,20.868,21.062l0.096-0.096
						C21.984,49.439,13.676,40.552,13.676,29.634z"/>
					<path style="fill:#FFFFFF;" d="M18.99,29.634c0-8.887,6.763-16.23,15.458-17.292l-0.097-0.097
						c-9.469,0.29-17.003,7.922-17.003,17.389c0,9.469,7.534,17.102,17.003,17.391l0.097-0.098
						C25.752,45.865,18.99,38.523,18.99,29.634z"/>
					<path style="fill:#FFFFFF;" d="M24.111,29.634c0-6.954,5.216-12.751,12.076-13.524v-0.097
						c-7.439,0.193-13.332,6.184-13.332,13.622c0,7.439,5.989,13.43,13.332,13.624v-0.099
						C29.425,42.291,24.111,36.592,24.111,29.634z"/>
				</g>
			</g>
		</g>
	</g>
</g>
<g id="Layer_1">
</g>
</svg>
